<svg width="554" height="501" viewBox="0 0 554 501" fill="none" xmlns="http://www.w3.org/2000/svg">
<g clip-path="url(#clip0_19_131)">
<path d="M550.2 446C520.1 470 484.8 486.7 447.2 494.9C409.5 503 370.5 502.4 333.2 492.9C295.8 483.5 261.2 465.5 231.9 440.5C202.6 415.5 179.5 384 164.4 348.5" stroke="#056CF2"/>
<path d="M551.8 56.2C521.1 31.3 485 14.1 446.3 5.90005C407.7 -2.29995 367.6 -1.19995 329.5 9.00005C291.3 19.3 256.1 38.5 226.8 65C197.5 91.5 174.9 124.5 160.8 161.4" stroke="#056CF2"/>
<path d="M391.9 383.5C465.63 383.5 525.4 323.73 525.4 250C525.4 176.27 465.63 116.5 391.9 116.5C318.17 116.5 258.4 176.27 258.4 250C258.4 323.73 318.17 383.5 391.9 383.5Z" stroke="#6C7498"/>
<path d="M257.9 261.5C251.5 261.5 246.4 256.4 246.4 250C246.4 243.6 251.5 238.5 257.9 238.5C264.3 238.5 269.4 243.6 269.4 250C269.4 256.4 264.2 261.5 257.9 261.5Z" fill="#000B38" stroke="#6C7498"/>
<path d="M257.9 256C261.214 256 263.9 253.314 263.9 250C263.9 246.686 261.214 244 257.9 244C254.586 244 251.9 246.686 251.9 250C251.9 253.314 254.586 256 257.9 256Z" fill="#6C7498"/>
<path d="M549.9 59C552.109 59 553.9 57.2091 553.9 55C553.9 52.7909 552.109 51 549.9 51C547.691 51 545.9 52.7909 545.9 55C545.9 57.2091 547.691 59 549.9 59Z" fill="#056CF2"/>
<path d="M549.9 450C552.109 450 553.9 448.209 553.9 446C553.9 443.791 552.109 442 549.9 442C547.691 442 545.9 443.791 545.9 446C545.9 448.209 547.691 450 549.9 450Z" fill="#056CF2"/>
<mask id="mask0_19_131" style="mask-type:luminance" maskUnits="userSpaceOnUse" x="304" y="257" width="178" height="45">
<path d="M481.9 257H304.9V302H481.9V257Z" fill="white"/>
</mask>
<g mask="url(#mask0_19_131)">
<path d="M327.3 286.9C328.4 286.3 329.6 286 330.9 286C332.9 286 334.6 286.7 336 288.1L337.7 286.5C336.9 285.6 335.9 284.9 334.7 284.4C333.5 283.9 332.2 283.7 330.8 283.7C329 283.7 327.4 284.1 325.9 284.9C324.4 285.7 323.3 286.8 322.5 288.2C321.7 289.6 321.3 291.2 321.3 292.9C321.3 294.6 321.7 296.2 322.5 297.6C323.3 299 324.5 300.1 325.9 300.9C327.4 301.7 329 302.1 330.8 302.1C332.2 302.1 333.5 301.9 334.7 301.4C335.9 300.9 336.9 300.2 337.7 299.3L336 297.7C334.6 299.1 332.9 299.9 330.9 299.9C329.6 299.9 328.4 299.6 327.3 299C326.2 298.4 325.4 297.6 324.8 296.5C324.2 295.5 323.9 294.3 323.9 293C323.9 291.7 324.2 290.5 324.8 289.5C325.4 288.3 326.2 287.5 327.3 286.9Z" fill="white"/>
<path d="M338.9 286.1H345.1V301.8H347.6V286.1H353.8V283.9H338.9V286.1Z" fill="white"/>
<path d="M358.6 297.7V283.9H356V301.8H358.4L369.1 288V301.8H371.6V283.9H369.2L358.6 297.7Z" fill="white"/>
<path d="M398.4 286.9C399.5 286.3 400.7 286 402 286C404 286 405.7 286.7 407.1 288.1L408.8 286.5C408 285.6 407 284.9 405.8 284.4C404.6 283.9 403.3 283.7 401.9 283.7C400.1 283.7 398.5 284.1 397 284.9C395.5 285.7 394.4 286.8 393.6 288.2C392.8 289.6 392.4 291.2 392.4 292.9C392.4 294.6 392.8 296.2 393.6 297.6C394.4 299 395.6 300.1 397 300.9C398.5 301.7 400.1 302.1 401.9 302.1C403.3 302.1 404.6 301.9 405.8 301.4C407 300.9 408 300.2 408.8 299.3L407.1 297.7C405.7 299.1 404 299.9 402 299.9C400.7 299.9 399.5 299.6 398.4 299C397.3 298.4 396.5 297.6 395.9 296.5C395.3 295.5 395 294.3 395 293C395 291.7 395.3 290.5 395.9 289.5C396.5 288.3 397.3 287.5 398.4 286.9Z" fill="white"/>
<path d="M411.2 301.8H413.7V286.1H424.1V301.8H426.6V283.9H411.1V301.8H411.2Z" fill="white"/>
<path d="M440.8 284.9C439.3 284.1 437.7 283.7 435.9 283.7C434.5 283.7 433.2 283.9 432 284.4C430.9 284.8 430 285.5 429.2 286.3L430.8 288C432.2 286.6 433.8 285.9 435.8 285.9C437.1 285.9 438.3 286.2 439.4 286.8C440.5 287.4 441.3 288.2 441.9 289.3C442.5 290.3 442.8 291.5 442.8 292.8C442.8 294.1 442.5 295.3 441.9 296.3C441.3 297.3 440.4 298.2 439.4 298.8C438.3 299.4 437.1 299.7 435.8 299.7C433.8 299.7 432.1 299 430.7 297.6L429.3 299.4C430.1 300.2 431 300.8 432.1 301.2C433.3 301.7 434.6 301.9 436 301.9C437.8 301.9 439.4 301.5 440.9 300.7C442.4 299.9 443.5 298.8 444.3 297.4C445.1 296 445.5 294.4 445.5 292.7C445.5 291 445.1 289.4 444.3 288C443.4 286.8 442.3 285.7 440.8 284.9Z" fill="white"/>
<path d="M441.8 291.8H435.2L433.7 293.7H440.3L441.8 291.8Z" fill="white"/>
<path d="M460.6 279.9H453.4L451.9 281.8H459.1L460.6 279.9Z" fill="white"/>
<path d="M450.3 297.7V283.9H447.8V301.8H450.2L460.9 288V301.8H463.4V283.9H461L450.3 297.7Z" fill="white"/>
<path d="M475.1 299.7C473.8 299.7 472.6 299.4 471.5 298.8C470.4 298.2 469.6 297.4 469 296.3C468.4 295.3 468.1 294.1 468.1 292.8C468.1 291.5 468.4 290.3 469 289.3C469.6 288.3 470.5 287.4 471.5 286.8C472.6 286.2 473.8 285.9 475.1 285.9C477.1 285.9 478.8 286.6 480.2 288L481.9 286.4C481.1 285.5 480.1 284.8 478.9 284.3C477.7 283.8 476.4 283.6 475 283.6C473.2 283.6 471.6 284 470.1 284.8C468.6 285.6 467.5 286.7 466.7 288.1C465.9 289.5 465.5 291.1 465.5 292.8C465.5 294.5 465.9 296.1 466.7 297.5C467.5 298.9 468.7 300 470.1 300.8C471.6 301.6 473.2 302 475 302C476.4 302 477.7 301.8 478.9 301.3C480.1 300.8 481.1 300.1 481.9 299.2L480.2 297.6C478.8 299 477.2 299.7 475.1 299.7Z" fill="white"/>
<path d="M381.5 283.9L373.4 301.8H376.1L382.9 286.5L389.7 301.8H392.4L384.3 283.9H381.5Z" fill="white"/>
<path d="M333.4 267.8C333.4 267 333.8 266.4 334.4 266C318.1 266.3 304.9 279.5 304.9 295.8C304.9 297.8 305.1 299.8 305.5 301.8C305.3 300.4 305.2 299 305.2 297.6C305.2 282.1 317.8 269.5 333.4 269.5C333.7 269.5 333.9 269.5 334.2 269.5C333.7 269.1 333.4 268.5 333.4 267.8Z" fill="white"/>
<path d="M336.8 269.3L332.2 275.2C332.1 275.3 332.1 275.5 332.2 275.6L333.5 278.3C333.6 278.6 334 278.6 334.2 278.4L339.9 271C340 270.9 340 270.7 339.9 270.6L339.5 269.8L343.3 270.3C343.8 270.3 344.1 270.3 344.6 270.1C345.8 269.5 346.2 268.2 345.7 267C345.4 266.3 344.8 265.9 344 265.8L348.2 260.4C348.3 260.3 348.3 260.1 348.2 260L346.9 257.3C346.8 257 346.4 257 346.2 257.2L340.5 264.6C340.4 264.7 340.4 264.9 340.5 265L340.9 265.8L337.5 266C337.3 266 337.1 266.1 336.9 266.2C336 266.6 335.7 267.7 336.1 268.5C336.3 268.8 336.5 269.1 336.8 269.3Z" fill="#056CF2"/>
</g>
<path d="M58.2 311.6C58.2 311.4 58.3 311.2 58.4 311C58.5 310.8 58.7 310.5 58.7 310.3C58.7 310.2 58.8 310.1 58.9 310C59.9 309.2 61 308.5 62.1 307.7C64.1 306.3 66.3 304.9 68.4 303.7C70.4 302.6 72.5 301.6 74.6 300.6C77.5 299.3 80.4 298.1 83.3 296.9C88.6 294.7 93.9 292.5 99.2 290.2C101.3 289.3 103.3 288.4 105.4 287.4C106.4 286.9 107.5 286.4 108.4 285.7C108.8 285.4 109.2 285.1 109.5 284.8C109.6 284.7 109.7 284.5 109.8 284.3C109.9 284 109.9 283.7 109.6 283.4C109.4 283.3 109.2 283.1 109 283C108.5 282.8 107.9 282.7 107.4 282.6C106.3 282.4 105.1 282.4 104 282.3C103.1 282.3 102.2 282.3 101.4 282.3C100.5 282.3 99.7 282.4 98.9 282.4C98.4 282.4 97.8 282.4 97.3 282.5C96.6 282.5 96 282.6 95.3 282.6C94.4 282.6 93.6 282.7 92.8 282.7C92 282.7 91.2 282.8 90.3 282.8C89.7 282.8 89.1 282.8 88.5 282.9C87.9 282.9 87.3 283 86.7 283C85.8 283 85 283.1 84.1 283.1C83.1 283.1 82.2 283.2 81.2 283.2C80.3 283.2 79.5 283.3 78.7 283.3C77.9 283.3 77.1 283.4 76.2 283.4C74.8 283.4 73.5 283.5 72.1 283.4C71.5 283.4 70.8 283.4 70.2 283.3C68.9 283.2 67.6 283.1 66.4 282.7C66.1 282.6 65.7 282.4 65.4 282.3C64.7 281.9 64.5 281.3 65 280.6C65.3 280.2 65.6 279.9 65.9 279.6C66.8 278.9 67.7 278.3 68.7 277.8C71.4 276.4 74.1 275.2 77 274.1C79.5 273.2 82.1 272.3 84.7 271.5C89.6 270 94.6 268.6 99.6 267.3C103.2 266.4 106.8 265.5 110.5 264.7C112.8 264.2 115 263.7 117.3 263.3C117.9 263.2 118.4 263.1 119.1 263.1C119.3 263.1 119.5 263.1 119.7 263.1C119.8 263.1 119.8 263.1 119.9 263.2C120 263.3 120 263.3 119.9 263.5C119.5 263.8 119.1 264 118.7 264.3C118.6 264.4 118.5 264.4 118.4 264.6C118.2 264.9 117.9 265 117.6 265C116 265.3 114.4 265.6 112.9 266C111 266.4 109.2 266.8 107.3 267.3C104.2 268 101.1 268.8 98.1 269.6C93.5 270.8 89 272 84.5 273.5C81.2 274.5 77.8 275.7 74.6 277C73.2 277.6 71.9 278.2 70.6 278.9C70.1 279.2 69.6 279.5 69.2 279.9C69.1 280 69 280.1 68.9 280.2C68.7 280.6 68.8 280.8 69.1 281.1C69.4 281.3 69.7 281.4 70.1 281.5C70.8 281.7 71.5 281.8 72.3 281.8C73.2 281.9 74.1 281.9 75 281.8C76 281.8 77 281.7 78 281.7C78.6 281.7 79.2 281.6 79.8 281.6C80.6 281.6 81.5 281.5 82.3 281.5C82.9 281.5 83.5 281.4 84.1 281.4C85 281.4 85.8 281.3 86.6 281.3C87.2 281.3 87.8 281.3 88.4 281.2C89.3 281.2 90.1 281.1 90.9 281.1C91.5 281.1 92.1 281.1 92.7 281C93.5 281 94.3 280.9 95.2 280.9C95.8 280.9 96.4 280.8 97 280.8C97.9 280.8 98.7 280.7 99.5 280.7C100 280.7 100.6 280.6 101.1 280.6C102.5 280.5 103.8 280.5 105.2 280.5C106.8 280.5 108.5 280.6 110.1 280.8C111.1 280.9 112 281.1 112.9 281.5C113.3 281.6 113.6 281.9 113.9 282.1C114.2 282.4 114.3 282.8 114.1 283.2C114 283.6 113.7 283.9 113.5 284.2C113 284.8 112.3 285.3 111.7 285.7C110.4 286.6 109 287.3 107.6 288C105.4 289.1 103.2 290.1 100.9 291.1C97.4 292.6 93.9 294.1 90.4 295.6C86.9 297 83.4 298.4 80 299.9C77.7 300.9 75.4 301.9 73.2 303C71.1 304 69 305.1 67.1 306.3C66 306.9 64.9 307.7 63.8 308.4C62.2 309.4 60.6 310.3 58.8 311.1C58.5 311.4 58.4 311.5 58.2 311.6Z" fill="#056CF2"/>
<path d="M137.2 280.7C136.9 280.8 136.7 281 136.4 281.1C135.9 281.4 135.4 281.6 135 281.9C134.9 282 134.8 281.9 134.7 281.8C134.5 281.4 134.3 281 134.1 280.6C134 280.5 134.1 280.4 134.2 280.3C135 279.9 135.7 279.5 136.5 279.1C137.2 278.7 137.9 278.3 138.6 278C138.7 277.9 138.8 277.9 138.9 277.7C139.9 276.4 141.1 275.3 142.6 274.4C143.3 274 144 273.7 144.7 273.4C146.1 272.9 147.5 272.5 148.9 272.1C149.4 272 149.8 271.9 150.3 271.8C150.4 271.8 150.5 271.8 150.6 271.8C150.8 271.8 150.8 271.9 150.7 272.1C150.7 272.2 150.6 272.3 150.5 272.4C150.1 272.8 149.5 273.2 149 273.6C148.2 274.1 147.5 274.6 146.7 275C145.8 275.5 144.9 276.1 144 276.7C143.7 276.9 143.4 277.1 143.1 277.3C142.7 277.6 142.3 277.8 141.8 278C141.2 278.3 140.5 278.6 139.9 279C139.8 279.1 139.7 279.1 139.7 279.2C139.4 279.7 139.1 280.2 138.8 280.7C138.7 280.9 138.6 281.1 138.5 281.2C138.4 281.3 138.4 281.4 138.4 281.5C138.3 281.9 138.5 282.1 138.8 282.2C139.1 282.3 139.4 282.3 139.7 282.2C140.3 282.1 140.9 282 141.5 281.9C143.1 281.6 144.6 281.4 146.2 281.1C147.6 280.9 149 280.7 150.4 280.5C151.8 280.3 153.2 280.1 154.5 279.9C155.4 279.8 156.3 279.6 157.2 279.5H157.3C157.4 279.5 157.4 279.5 157.4 279.6C157.4 280.1 157.5 280.5 157.6 281C157.6 281.1 157.6 281.2 157.4 281.2C156.7 281.3 156 281.4 155.3 281.5C154 281.7 152.8 281.8 151.5 282C150.2 282.2 148.9 282.4 147.6 282.5C145.8 282.8 143.9 283 142.1 283.4C141.2 283.5 140.3 283.8 139.4 283.9C138.8 284 138.1 284 137.4 283.8C137.2 283.8 137 283.7 136.9 283.6C136.5 283.4 136.3 283 136.3 282.6C136.3 282.2 136.3 281.8 136.5 281.4C136.9 281.3 137.1 281 137.2 280.7Z" fill="#056CF2"/>
<path d="M116 285C116.1 285 116.2 284.9 116.2 284.9C118.8 283.1 121.5 281.5 124.3 280C125.3 279.5 126.3 279 127.4 278.5C128.1 278.2 128.7 277.8 129.4 277.5C130.2 277.1 131.1 276.7 132 276.5C132.2 276.4 132.5 276.4 132.8 276.4C133.1 276.4 133.2 276.6 133.2 276.9C133.2 277.1 133.1 277.3 133 277.5C132.7 278 132.4 278.4 132.1 278.9C131.5 279.7 130.8 280.4 130.1 281.2C129.5 281.8 128.9 282.5 128.3 283.2C128.2 283.3 128.2 283.4 128.2 283.5C128.1 283.9 127.9 284.3 127.7 284.7C127.7 284.8 127.7 284.8 127.6 284.9C127.3 284.8 127.1 284.5 127 284.1C126.9 283.8 127 283.5 127 283.2C127.1 282.6 127.4 282 127.8 281.5C128.3 280.7 128.8 280.1 129.4 279.4C129.4 279.4 129.4 279.4 129.4 279.3H129.3C128.1 280 126.8 280.5 125.6 281.2C123.3 282.4 121 283.7 118.9 285.1C118.2 285.5 117.5 286 116.7 286.3C116.4 286.4 116.1 286.5 115.8 286.5C115.5 286.5 115.3 286.5 115.1 286.4C114.7 286.2 114.5 285.9 114.5 285.5C114.5 285 114.6 284.5 114.8 284C115.2 282.8 115.8 281.8 116.4 280.8C116.6 280.4 116.9 280 117.1 279.6C117 279.6 116.9 279.6 116.8 279.6C115.8 279.8 114.8 280 113.8 280.2C113.7 280.2 113.6 280.2 113.6 280.1C113.5 279.7 113.5 279.3 113.4 278.8C113.4 278.6 113.4 278.6 113.5 278.6C114.8 278.3 116.2 278.1 117.5 277.8C117.7 277.8 118 277.7 118.2 277.7C118.3 277.7 118.5 277.6 118.5 277.5C119.2 276.5 119.8 275.6 120.5 274.7L120.6 274.6C120.6 274.5 120.7 274.5 120.7 274.6C121.1 274.9 121.6 275.2 122 275.5C121.6 276.1 121.1 276.7 120.6 277.4C122 277.2 123.3 276.9 124.6 276.7C124.7 276.8 124.6 276.8 124.6 276.9C124.5 277.3 124.4 277.7 124.4 278.1C124.4 278.3 124.3 278.3 124.1 278.4C123.3 278.5 122.6 278.7 121.8 278.8C121 278.9 120.2 279.1 119.3 279.3C119.2 279.3 119.1 279.4 119 279.4C118 280.9 116.9 282.4 116.1 284C116 284.3 115.8 284.5 115.7 284.9C116 284.7 116 284.9 116 285Z" fill="#056CF2"/>
<path d="M135.6 273.4C135.9 273.4 136.2 273.4 136.5 273.5C136.6 273.5 136.7 273.6 136.8 273.6C136.9 273.7 136.9 273.8 136.9 273.9C136.8 274 136.7 274.1 136.6 274.2C136.3 274.4 135.9 274.6 135.5 274.7C134.4 275.2 133.3 275.5 132.2 275.9C132.1 275.9 132 275.9 132 275.8C131.8 275.2 131.6 274.6 131.5 274C131.5 273.9 131.5 273.8 131.6 273.8C132.6 273.5 133.6 273.2 134.6 273C134.8 273 135 273 135.2 273C135.6 272.9 135.7 273 135.6 273.4C135.6 273.3 135.6 273.3 135.6 273.4Z" fill="#056CF2"/>
<path d="M122.5 289.3C122.6 289.3 122.7 289.3 122.7 289.3C124.1 289.3 125.5 289.3 126.9 289.3C127 289.3 127 289.3 127.1 289.3C127.2 289.3 127.2 289.3 127.2 289.2C127.2 289 127.2 288.8 127.2 288.6C127.2 288.5 127.2 288.5 127.1 288.5C127 288.5 127 288.5 126.9 288.5C125.8 288.5 124.7 288.5 123.6 288.5C123.4 288.5 123.3 288.5 123.1 288.5C122.7 288.4 122.5 288.2 122.5 287.7C122.5 287.2 122.7 287 123.2 287C123.3 287 123.4 287 123.5 287C124.7 287 125.9 287 127.1 287C127.2 287 127.4 287 127.5 287.1C127.6 287.1 127.7 287.2 127.8 287.4C127.8 287.5 127.7 287.4 127.6 287.4C126.2 287.4 124.9 287.4 123.5 287.4C123.1 287.4 123.2 287.4 123.2 287.7C123.2 287.8 123.2 287.9 123.2 288.1C123.2 288.2 123.2 288.2 123.3 288.2C123.4 288.2 123.4 288.2 123.5 288.2C124.6 288.2 125.6 288.2 126.7 288.2C126.9 288.2 127.1 288.2 127.4 288.2C127.8 288.3 127.9 288.4 128 288.8C128.1 289.4 127.9 289.7 127.2 289.7C127.1 289.7 126.9 289.7 126.7 289.7C125.5 289.7 124.3 289.7 123.1 289.7C122.9 289.7 122.7 289.7 122.6 289.6C122.6 289.5 122.5 289.5 122.5 289.3Z" fill="#056CF2"/>
<path d="M142.5 286.9C143.3 286.9 144.1 286.9 144.9 286.9C145.2 286.9 145.2 286.9 145.1 287.2C145.1 287.3 145.1 287.3 145 287.3C144.9 287.3 144.9 287.3 144.8 287.3C143.6 287.3 142.4 287.3 141.1 287.3H141C140.9 287.3 140.8 287.3 140.9 287.4C140.9 287.6 140.9 287.8 140.9 288C140.9 288.1 141 288.1 141.1 288.1C141.7 288.1 142.4 288.1 143 288.1C143.1 288.1 143.1 288.1 143.2 288.1C143.3 288.1 143.4 288.1 143.4 288.1C143.4 288.2 143.4 288.3 143.4 288.4C143.4 288.5 143.3 288.5 143.3 288.5C143.1 288.5 142.8 288.5 142.6 288.5C142.1 288.5 141.7 288.5 141.2 288.5C141.1 288.5 141 288.5 141 288.7C141 289 141 289.2 141 289.5C141 289.6 141 289.7 140.9 289.7C140.7 289.7 140.5 289.7 140.3 289.7C140.2 289.7 140.2 289.7 140.2 289.6C140.2 289.5 140.2 289.3 140.2 289.1C140.2 288.5 140.2 287.8 140.2 287.1C140.2 286.9 140.2 286.9 140.4 286.9C140.9 286.9 141.7 286.9 142.5 286.9Z" fill="#056CF2"/>
<path d="M151.8 286.9V287C151.8 287.3 151.8 287.3 151.6 287.3C150.9 287.3 150.2 287.3 149.6 287.3C149.3 287.3 149.4 287.3 149.4 287.5C149.4 288.1 149.4 288.8 149.4 289.4C149.4 289.6 149.4 289.6 149.2 289.6C149 289.6 148.8 289.6 148.6 289.6C148.5 289.6 148.5 289.6 148.5 289.5C148.5 288.9 148.5 288.2 148.5 287.6C148.5 287.2 148.6 287.3 148.2 287.3C147.6 287.3 146.9 287.3 146.3 287.3C146 287.3 146 287.3 146 287C146 287 146 287 146 286.9C147.9 286.9 149.9 286.9 151.8 286.9Z" fill="#056CF2"/>
<path d="M137.1 287.5C137.1 287.2 136.9 287.1 136.7 287C136.6 287 136.4 286.9 136.2 286.9C134.7 286.9 133.2 286.9 131.7 286.9C131.6 286.9 131.4 286.9 131.3 287C131 287.1 130.8 287.3 130.8 287.6C130.8 288.1 130.8 288.6 130.8 289C130.8 289.3 130.9 289.5 131.2 289.6C131.3 289.6 131.5 289.7 131.6 289.7C132.4 289.7 133.1 289.7 133.9 289.7C134.7 289.7 135.4 289.7 136.2 289.7C136.3 289.7 136.4 289.7 136.5 289.7C136.9 289.6 137.1 289.4 137.1 289C137.1 288.7 137.1 288.4 137.1 288.1C137.1 287.9 137.1 287.7 137.1 287.5ZM136.1 289.3C135.4 289.3 134.7 289.3 134 289.3C133.3 289.3 132.6 289.3 132 289.3C131.8 289.3 131.8 289.3 131.8 289.1C131.8 288.6 131.8 288 131.8 287.5C131.8 287.4 131.8 287.3 132 287.3C133.4 287.3 134.8 287.3 136.2 287.3C136.3 287.3 136.4 287.3 136.4 287.5C136.4 288 136.4 288.6 136.4 289.2C136.3 289.2 136.2 289.3 136.1 289.3Z" fill="#056CF2"/>
<path d="M216.9 253.2L224.4 245.7L216.9 238.2" stroke="white" stroke-width="1.5"/>
<path d="M209.4 253.2L216.9 245.7L209.4 238.2" stroke="white" stroke-width="1.5"/>
<path d="M318.4 141C319.781 141 320.9 139.881 320.9 138.5C320.9 137.119 319.781 136 318.4 136C317.019 136 315.9 137.119 315.9 138.5C315.9 139.881 317.019 141 318.4 141Z" fill="#6C7498"/>
<path d="M463.4 365C464.781 365 465.9 363.881 465.9 362.5C465.9 361.119 464.781 360 463.4 360C462.019 360 460.9 361.119 460.9 362.5C460.9 363.881 462.019 365 463.4 365Z" fill="#6C7498"/>
<path d="M0 229V217.8H9.4V229H8.3V218.5L8.6 218.8H0.9L1.2 218.5V229H0ZM17.2 229V217.8H21.4C22.3 217.8 23.2 218 23.8 218.3C24.5 218.6 25 219 25.4 219.6C25.8 220.2 26 220.9 26 221.7C26 222.5 25.8 223.2 25.4 223.7C25 224.3 24.5 224.7 23.8 225C23.1 225.3 22.3 225.5 21.4 225.5H17.9L18.4 224.9V229H17.2ZM18.4 225L17.9 224.4H21.4C22.5 224.4 23.4 224.2 23.9 223.7C24.5 223.2 24.8 222.5 24.8 221.6C24.8 220.7 24.5 220 23.9 219.5C23.3 219 22.5 218.8 21.4 218.8H17.9L18.4 218.2V225ZM37.5 229.1C36.7 229.1 35.9 229 35.1 228.7C34.4 228.4 33.8 228 33.2 227.5C32.7 227 32.3 226.4 32 225.7C31.7 225 31.6 224.2 31.6 223.4C31.6 222.6 31.7 221.8 32 221.1C32.3 220.4 32.7 219.8 33.2 219.3C33.7 218.8 34.4 218.4 35.1 218.1C35.8 217.8 36.6 217.7 37.5 217.7C38.3 217.7 39.1 217.8 39.8 218.1C40.5 218.4 41.1 218.8 41.7 219.3C42.2 219.8 42.6 220.4 42.9 221.1C43.2 221.8 43.3 222.6 43.3 223.4C43.3 224.2 43.2 225 42.9 225.7C42.6 226.4 42.2 227 41.7 227.5C41.2 228 40.6 228.4 39.8 228.7C39.1 229 38.3 229.1 37.5 229.1ZM37.5 228C38.2 228 38.8 227.9 39.4 227.7C40 227.5 40.5 227.1 40.9 226.7C41.3 226.3 41.7 225.8 41.9 225.2C42.1 224.6 42.3 224 42.3 223.3C42.3 222.6 42.2 222 41.9 221.5C41.7 220.9 41.3 220.4 40.9 220C40.5 219.6 40 219.2 39.4 219C38.8 218.8 38.2 218.6 37.5 218.6C36.8 218.6 36.2 218.7 35.6 219C35 219.2 34.5 219.5 34.1 220C33.7 220.4 33.4 220.9 33.1 221.5C32.9 222.1 32.7 222.7 32.7 223.3C32.7 224 32.8 224.6 33.1 225.1C33.3 225.7 33.7 226.2 34.1 226.6C34.5 227 35 227.3 35.6 227.6C36.2 227.9 36.8 228 37.5 228ZM50.2 229V217.8H51.4V227.1L58.6 217.8H59.7V229H58.5V219.7L51.3 229H50.2ZM66 227.7L66.4 226.9C66.9 227.3 67.4 227.6 68 227.9C68.6 228.1 69.2 228.2 69.9 228.2C70.5 228.2 71.1 228.1 71.6 227.9C72.1 227.7 72.5 227.5 72.9 227.1C73.2 226.7 73.4 226.3 73.4 225.8C73.4 225.1 73.1 224.6 72.6 224.3C72.1 223.9 71.4 223.8 70.5 223.8H68.1V222.8H70.4C71.2 222.8 71.8 222.6 72.2 222.3C72.6 222 72.9 221.5 72.9 220.9C72.9 220.5 72.8 220.1 72.5 219.8C72.3 219.5 71.9 219.3 71.5 219.1C71.1 218.9 70.6 218.8 70.1 218.8C69.6 218.8 69 218.8 68.4 219C67.8 219.1 67.3 219.4 66.8 219.7L66.4 218.7C67.1 218.3 67.7 218 68.5 217.9C69.2 217.7 69.9 217.7 70.6 217.7C71.3 217.8 71.9 217.9 72.4 218.2C72.9 218.5 73.4 218.8 73.7 219.2C74 219.6 74.2 220.1 74.2 220.7C74.2 221.2 74.1 221.7 73.8 222.1C73.5 222.5 73.2 222.8 72.7 223C72.2 223.2 71.6 223.3 71 223.3L71.1 222.9C71.8 222.9 72.5 223 73 223.3C73.6 223.5 74 223.9 74.3 224.3C74.6 224.7 74.8 225.2 74.8 225.8C74.8 226.3 74.7 226.8 74.4 227.3C74.1 227.7 73.8 228.1 73.3 228.4C72.8 228.7 72.3 228.9 71.7 229C71.1 229.1 70.5 229.1 69.9 229.1C69.3 229 68.6 228.9 68 228.7C67.1 228.4 66.5 228.1 66 227.7ZM81.5 229V217.8H86.2C87.4 217.8 88.3 218 89 218.5C89.7 219 90 219.7 90 220.6C90 221.5 89.7 222.2 89 222.7C88.4 223.2 87.5 223.4 86.4 223.4L86.7 223C87.9 223 88.9 223.2 89.5 223.7C90.2 224.2 90.5 224.9 90.5 225.9C90.5 226.9 90.2 227.6 89.5 228.1C88.8 228.6 87.8 228.9 86.5 228.9H81.5V229ZM82.7 228.1H86.5C87.4 228.1 88.2 227.9 88.7 227.6C89.2 227.2 89.4 226.7 89.4 226C89.4 225.3 89.2 224.7 88.7 224.4C88.2 224.1 87.5 223.9 86.5 223.9H82.7V228.1ZM82.7 222.9H86.1C87 222.9 87.6 222.7 88.1 222.4C88.6 222 88.8 221.5 88.8 220.8C88.8 220.1 88.6 219.6 88.1 219.3C87.6 218.9 87 218.8 86.1 218.8H82.7V222.9ZM102.4 229.1C101.6 229.1 100.8 229 100 228.7C99.3 228.4 98.7 228 98.1 227.5C97.6 227 97.2 226.4 96.9 225.7C96.6 225 96.5 224.2 96.5 223.4C96.5 222.6 96.6 221.8 96.9 221.1C97.2 220.4 97.6 219.8 98.1 219.3C98.6 218.8 99.3 218.4 100 218.1C100.7 217.8 101.5 217.7 102.4 217.7C103.2 217.7 104 217.8 104.7 218.1C105.4 218.4 106 218.8 106.6 219.3C107.1 219.8 107.5 220.4 107.8 221.1C108.1 221.8 108.2 222.6 108.2 223.4C108.2 224.2 108 225 107.8 225.7C107.5 226.4 107.1 227 106.6 227.5C106.1 228 105.5 228.4 104.7 228.7C104 229 103.3 229.1 102.4 229.1ZM102.4 228C103.1 228 103.7 227.9 104.3 227.7C104.9 227.5 105.4 227.1 105.8 226.7C106.2 226.3 106.6 225.8 106.8 225.2C107 224.6 107.2 224 107.2 223.3C107.2 222.6 107.1 222 106.8 221.5C106.6 220.9 106.2 220.4 105.8 220C105.4 219.6 104.9 219.2 104.3 219C103.7 218.8 103.1 218.6 102.4 218.6C101.7 218.6 101.1 218.7 100.5 219C99.9 219.2 99.4 219.5 99 220C98.6 220.4 98.3 220.9 98 221.5C97.8 222.1 97.6 222.7 97.6 223.3C97.6 224 97.7 224.6 98 225.1C98.2 225.7 98.6 226.2 99 226.6C99.4 227 99.9 227.3 100.5 227.6C101.1 227.9 101.7 228 102.4 228ZM122.2 228.4V218.8H116.8L116.7 221.5C116.7 222.3 116.6 223.2 116.5 223.9C116.4 224.7 116.3 225.4 116.2 226C116.1 226.6 115.9 227.1 115.6 227.5C115.4 227.9 115.1 228.1 114.7 228.2L113.4 228C113.8 228 114.2 227.9 114.5 227.5C114.8 227.2 115 226.7 115.2 226.1C115.4 225.5 115.5 224.8 115.6 224C115.7 223.2 115.7 222.3 115.8 221.4L115.9 217.8H123.5V228.4H122.2ZM113.1 231.5V228H125.1V231.5H124V229H114.2V231.5H113.1ZM131.5 229V217.8H132.7V227.1L139.9 217.8H141V229H139.8V219.7L132.6 229H131.5ZM150.9 229V218.5L151.2 218.8H147V217.8H156V218.8H151.8L152.1 218.5V229H150.9ZM163.2 222.8H169.1V223.8H163.2V222.8ZM163.3 228H170V229H162.1V217.8H169.8V218.8H163.3V228ZM175.8 229.1C175.7 229.1 175.5 229.1 175.4 229.1C175.3 229.1 175.1 229.1 174.9 229L175 227.9C175.2 227.9 175.4 228 175.5 228C176 228 176.4 227.8 176.7 227.4C177 227 177.2 226.4 177.4 225.6C177.5 224.8 177.6 223.8 177.7 222.5L177.9 217.7H185.5V229H184.3V218.5L184.6 218.8H178.6L178.9 218.5L178.8 222.6C178.8 223.7 178.7 224.7 178.6 225.5C178.5 226.3 178.3 227 178.1 227.5C177.9 228 177.6 228.4 177.2 228.7C176.8 229 176.3 229.1 175.8 229.1ZM197.9 221.8C199.2 221.8 200.2 222.1 200.9 222.7C201.6 223.3 202 224.2 202 225.3C202 226.5 201.6 227.4 200.9 228.1C200.2 228.7 199.1 229 197.7 229H193.3V217.8H194.5V221.8H197.9ZM197.6 228.1C198.6 228.1 199.4 227.9 200 227.4C200.5 226.9 200.8 226.3 200.8 225.4C200.8 224.5 200.5 223.9 200 223.4C199.5 223 198.7 222.8 197.6 222.8H194.4V228.1H197.6ZM37.4 249.1C36.6 249.1 35.8 249 35.1 248.7C34.4 248.4 33.8 248 33.2 247.5C32.7 247 32.3 246.4 32 245.7C31.7 245 31.6 244.2 31.6 243.4C31.6 242.6 31.7 241.8 32 241.1C32.3 240.4 32.7 239.8 33.2 239.3C33.7 238.8 34.4 238.4 35.1 238.1C35.8 237.8 36.6 237.7 37.4 237.7C38.2 237.7 39 237.8 39.7 238.1C40.4 238.4 41 238.8 41.5 239.3L40.7 240.1C40.2 239.6 39.7 239.3 39.2 239.1C38.6 238.9 38 238.8 37.4 238.8C36.7 238.8 36.1 238.9 35.5 239.2C34.9 239.4 34.4 239.7 34 240.2C33.6 240.6 33.2 241.1 33 241.7C32.8 242.3 32.6 242.9 32.6 243.5C32.6 244.2 32.7 244.8 33 245.4C33.2 246 33.6 246.4 34 246.9C34.4 247.3 34.9 247.6 35.5 247.9C36.1 248.1 36.7 248.2 37.4 248.2C38 248.2 38.6 248.1 39.2 247.9C39.8 247.7 40.3 247.3 40.7 246.9L41.5 247.7C41 248.2 40.4 248.7 39.7 248.9C39 249 38.2 249.1 37.4 249.1ZM47.9 249V237.8H57.3V249H56.1V238.5L56.4 238.8H48.7L49 238.5V249H47.9ZM64.9 247.9C65.4 248.1 66 248.2 66.4 248.1C66.9 248 67.3 247.6 67.7 247L68.2 246.1L68.3 246L72.6 237.9H73.8L68.7 247.3C68.4 248 68 248.4 67.5 248.8C67 249.1 66.6 249.3 66 249.3C65.5 249.3 65 249.2 64.4 249L64.9 247.9ZM68.4 247L63.6 237.8H64.9L69.1 246L68.4 247ZM82.2 249V238.5L82.5 238.8H78.2V237.8H87.2V238.8H83L83.3 238.5V249H82.2ZM101.5 237.8H102.7V249H101.5V237.8ZM94.5 249H93.3V237.8H94.5V249ZM101.6 243.8H94.4V242.8H101.6V243.8ZM110.5 249V237.8H111.7V247.1L118.9 237.8H120V249H118.8V239.7L111.6 249H110.5ZM135.3 249L131 243.4L132 242.8L136.7 249H135.3ZM127.7 249V237.8H128.9V249H127.7ZM128.5 243.9V242.9H132V243.9H128.5ZM132.1 243.5L131 243.3L135.2 237.8H136.5L132.1 243.5ZM147.4 249.1C146.6 249.1 145.8 249 145 248.7C144.3 248.4 143.7 248 143.1 247.5C142.6 247 142.2 246.4 141.9 245.7C141.6 245 141.5 244.2 141.5 243.4C141.5 242.6 141.6 241.8 141.9 241.1C142.2 240.4 142.6 239.8 143.1 239.3C143.6 238.8 144.3 238.4 145 238.1C145.7 237.8 146.5 237.7 147.4 237.7C148.2 237.7 149 237.8 149.7 238.1C150.4 238.4 151 238.8 151.6 239.3C152.1 239.8 152.5 240.4 152.8 241.1C153.1 241.8 153.2 242.6 153.2 243.4C153.2 244.2 153.1 245 152.8 245.7C152.5 246.4 152.1 247 151.6 247.5C151.1 248 150.5 248.4 149.7 248.7C149 249 148.2 249.1 147.4 249.1ZM147.4 248C148.1 248 148.7 247.9 149.3 247.7C149.9 247.5 150.4 247.1 150.8 246.7C151.2 246.3 151.6 245.8 151.8 245.2C152 244.6 152.2 244 152.2 243.3C152.2 242.6 152.1 242 151.8 241.5C151.6 240.9 151.2 240.4 150.8 240C150.4 239.6 149.9 239.2 149.3 239C148.7 238.8 148.1 238.6 147.4 238.6C146.7 238.6 146.1 238.7 145.5 239C144.9 239.2 144.4 239.5 144 240C143.6 240.4 143.3 240.9 143 241.5C142.8 242.1 142.6 242.7 142.6 243.3C142.6 244 142.7 244.6 143 245.1C143.2 245.7 143.6 246.2 144 246.6C144.4 247 144.9 247.3 145.5 247.6C146.1 247.9 146.7 248 147.4 248ZM160.1 249V237.8H164.8C166 237.8 166.9 238 167.6 238.5C168.3 239 168.6 239.7 168.6 240.6C168.6 241.5 168.3 242.2 167.6 242.7C167 243.2 166.1 243.4 165 243.4L165.3 243C166.5 243 167.5 243.2 168.1 243.7C168.8 244.2 169.1 244.9 169.1 245.9C169.1 246.9 168.8 247.6 168.1 248.1C167.4 248.6 166.4 248.9 165.1 248.9H160.1V249ZM161.3 248.1H165.1C166 248.1 166.8 247.9 167.3 247.6C167.8 247.2 168 246.7 168 246C168 245.3 167.8 244.7 167.3 244.4C166.8 244.1 166.1 243.9 165.1 243.9H161.3V248.1ZM161.3 242.9H164.7C165.6 242.9 166.2 242.7 166.7 242.4C167.2 242 167.4 241.5 167.4 240.8C167.4 240.1 167.2 239.6 166.7 239.3C166.2 238.9 165.6 238.8 164.7 238.8H161.3V242.9Z" fill="#056CF2"/>
<path d="M344.9 229.1C344.1 229.1 343.3 229 342.5 228.7C341.8 228.4 341.2 228 340.6 227.5C340.1 227 339.7 226.4 339.4 225.7C339.1 225 339 224.2 339 223.4C339 222.6 339.1 221.8 339.4 221.1C339.7 220.4 340.1 219.8 340.6 219.3C341.1 218.8 341.8 218.4 342.5 218.1C343.2 217.8 344 217.7 344.9 217.7C345.7 217.7 346.5 217.8 347.2 218.1C347.9 218.4 348.5 218.8 349.1 219.3C349.6 219.8 350 220.4 350.3 221.1C350.6 221.8 350.7 222.6 350.7 223.4C350.7 224.2 350.6 225 350.3 225.7C350 226.4 349.6 227 349.1 227.5C348.6 228 348 228.4 347.2 228.7C346.5 229 345.8 229.1 344.9 229.1ZM344.9 228C345.6 228 346.2 227.9 346.8 227.7C347.4 227.5 347.9 227.1 348.3 226.7C348.7 226.3 349.1 225.8 349.3 225.2C349.5 224.6 349.7 224 349.7 223.3C349.7 222.6 349.6 222 349.3 221.5C349.1 220.9 348.7 220.4 348.3 220C347.9 219.6 347.4 219.2 346.8 219C346.2 218.8 345.6 218.6 344.9 218.6C344.2 218.6 343.6 218.7 343 219C342.4 219.2 341.9 219.5 341.5 220C341.1 220.4 340.8 220.9 340.5 221.5C340.3 222.1 340.1 222.7 340.1 223.3C340.1 224 340.2 224.6 340.5 225.1C340.7 225.7 341.1 226.2 341.5 226.6C341.9 227 342.4 227.3 343 227.6C343.6 227.9 344.3 228 344.9 228ZM355.6 229V217.8H365V229H363.8V218.5L364.1 218.8H356.4L356.7 218.5V229H355.6ZM371.9 222.8H377.8V223.8H371.9V222.8ZM372 228H378.7V229H370.8V217.8H378.5V218.8H372V228ZM383.4 229V217.8H387.6C388.5 217.8 389.4 218 390 218.3C390.7 218.6 391.2 219 391.6 219.6C392 220.2 392.2 220.9 392.2 221.7C392.2 222.5 392 223.2 391.6 223.7C391.2 224.3 390.7 224.7 390 225C389.3 225.3 388.5 225.5 387.6 225.5H384L384.5 224.9V229H383.4ZM384.6 225L384.1 224.4H387.6C388.7 224.4 389.6 224.2 390.1 223.7C390.7 223.2 391 222.5 391 221.6C391 220.7 390.7 220 390.1 219.5C389.5 219 388.7 218.8 387.6 218.8H384L384.5 218.2V225H384.6ZM394.4 229L399.5 217.8H400.7L405.8 229H404.6L399.9 218.5H400.4L395.7 229H394.4ZM396.4 226L396.8 225H403.3L403.7 226H396.4ZM411.6 229V218.5L411.9 218.8H407.6V217.8H416.6V218.8H412.4L412.7 218.5V229H411.6ZM425.5 229.1C424.7 229.1 423.9 229 423.1 228.7C422.4 228.4 421.8 228 421.2 227.5C420.7 227 420.3 226.4 420 225.7C419.7 225 419.6 224.2 419.6 223.4C419.6 222.6 419.7 221.8 420 221.1C420.3 220.4 420.7 219.8 421.2 219.3C421.7 218.8 422.4 218.4 423.1 218.1C423.8 217.8 424.6 217.7 425.5 217.7C426.3 217.7 427.1 217.8 427.8 218.1C428.5 218.4 429.1 218.8 429.7 219.3C430.2 219.8 430.6 220.4 430.9 221.1C431.2 221.8 431.3 222.6 431.3 223.4C431.3 224.2 431.2 225 430.9 225.7C430.6 226.4 430.2 227 429.7 227.5C429.2 228 428.6 228.4 427.8 228.7C427.1 229 426.3 229.1 425.5 229.1ZM425.5 228C426.2 228 426.8 227.9 427.4 227.7C428 227.5 428.5 227.1 428.9 226.7C429.3 226.3 429.7 225.8 429.9 225.2C430.1 224.6 430.3 224 430.3 223.3C430.3 222.6 430.2 222 429.9 221.5C429.7 220.9 429.3 220.4 428.9 220C428.5 219.6 428 219.2 427.4 219C426.8 218.8 426.2 218.6 425.5 218.6C424.8 218.6 424.2 218.7 423.6 219C423 219.2 422.5 219.5 422.1 220C421.7 220.4 421.4 220.9 421.1 221.5C420.9 222.1 420.7 222.7 420.7 223.3C420.7 224 420.8 224.6 421.1 225.1C421.3 225.7 421.7 226.2 422.1 226.6C422.5 227 423 227.3 423.6 227.6C424.2 227.9 424.8 228 425.5 228ZM436.2 229V217.8H440.4C441.3 217.8 442.2 218 442.8 218.3C443.5 218.6 444 219 444.4 219.6C444.8 220.2 445 220.9 445 221.7C445 222.5 444.8 223.2 444.4 223.7C444 224.3 443.5 224.7 442.8 225C442.1 225.3 441.3 225.5 440.4 225.5H436.9L437.4 224.9V229H436.2ZM437.4 225L436.9 224.4H440.4C441.5 224.4 442.4 224.2 442.9 223.7C443.5 223.2 443.8 222.5 443.8 221.6C443.8 220.7 443.5 220 442.9 219.5C442.3 219 441.5 218.8 440.4 218.8H436.9L437.4 218.2V225ZM336.1 248.4V238.8H330.7L330.6 241.5C330.6 242.3 330.5 243.2 330.4 243.9C330.3 244.7 330.2 245.4 330.1 246C330 246.6 329.8 247.1 329.5 247.5C329.3 247.9 329 248.1 328.6 248.2L327.3 248C327.7 248 328.1 247.9 328.4 247.5C328.7 247.2 328.9 246.7 329.1 246.1C329.3 245.5 329.4 244.8 329.5 244C329.6 243.2 329.6 242.3 329.7 241.4L329.8 237.8H337.4V248.4H336.1ZM327 251.5V248H339V251.5H337.9V249H328.1V251.5H327ZM341.8 249L346.9 237.8H348.1L353.2 249H352L347.3 238.5H347.8L343 249H341.8ZM343.8 246L344.2 245H350.7L351.1 246H343.8ZM365.5 237.8H366.7V249H365.5V237.8ZM358.5 249H357.3V237.8H358.5V249ZM365.6 243.8H358.4V242.8H365.6V243.8ZM380.6 237.8H381.8V249H380.6V237.8ZM373.6 249H372.4V237.8H373.6V249ZM380.7 243.8H373.5V242.8H380.7V243.8ZM392.3 241.8C393.6 241.8 394.6 242.1 395.3 242.7C396 243.3 396.4 244.2 396.4 245.3C396.4 246.5 396 247.4 395.3 248.1C394.6 248.7 393.5 249 392.1 249H387.7V237.8H388.9V241.8H392.3ZM392 248.1C393 248.1 393.8 247.9 394.4 247.4C394.9 246.9 395.2 246.3 395.2 245.4C395.2 244.5 394.9 243.9 394.4 243.4C393.9 243 393.1 242.8 392 242.8H388.8V248.1H392ZM398.3 249V237.8H399.5V249H398.3ZM404 237.8H405.4L408.6 242.2L411.8 237.8H413.2L409.4 243.2L413.5 249H412L408.5 244.2L405 249H403.6L407.7 243.2L404 237.8ZM431.3 248.4V238.8H425.9L425.8 241.5C425.8 242.3 425.7 243.2 425.6 243.9C425.5 244.7 425.4 245.4 425.3 246C425.2 246.6 425 247.1 424.7 247.5C424.5 247.9 424.2 248.1 423.8 248.2L422.5 248C422.9 248 423.3 247.9 423.6 247.5C423.9 247.2 424.1 246.7 424.3 246.1C424.5 245.5 424.6 244.8 424.7 244C424.8 243.2 424.8 242.3 424.9 241.4L425 237.8H432.6V248.4H431.3ZM422.1 251.5V248H434.1V251.5H433V249H423.2V251.5H422.1ZM437.2 247.7L437.6 246.9C438.1 247.3 438.6 247.6 439.2 247.9C439.8 248.1 440.4 248.2 441.1 248.2C441.7 248.2 442.3 248.1 442.8 247.9C443.3 247.7 443.7 247.5 444.1 247.1C444.4 246.7 444.6 246.3 444.6 245.8C444.6 245.1 444.3 244.6 443.8 244.3C443.3 243.9 442.6 243.8 441.7 243.8H439.3V242.8H441.6C442.4 242.8 443 242.6 443.4 242.3C443.8 242 444.1 241.5 444.1 240.9C444.1 240.5 444 240.1 443.7 239.8C443.5 239.5 443.1 239.3 442.7 239.1C442.3 238.9 441.8 238.8 441.3 238.8C440.8 238.8 440.2 238.8 439.6 239C439 239.1 438.5 239.4 438 239.7L437.6 238.7C438.3 238.3 439 238 439.7 237.9C440.4 237.7 441.1 237.7 441.8 237.7C442.5 237.7 443.1 237.9 443.6 238.2C444.1 238.5 444.6 238.8 444.9 239.2C445.2 239.6 445.4 240.1 445.4 240.7C445.4 241.2 445.3 241.7 445 242.1C444.7 242.5 444.4 242.8 443.9 243C443.4 243.2 442.9 243.3 442.2 243.3L442.3 242.9C443 242.9 443.7 243 444.2 243.3C444.8 243.5 445.2 243.9 445.5 244.3C445.8 244.7 446 245.2 446 245.8C446 246.3 445.9 246.8 445.6 247.3C445.3 247.7 445 248.1 444.5 248.4C444 248.7 443.5 248.9 442.9 249C442.3 249.1 441.7 249.1 441.1 249.1C440.5 249 439.8 248.9 439.2 248.7C438.3 248.4 437.7 248.1 437.2 247.7ZM449.4 247.7L449.8 246.9C450.3 247.3 450.8 247.6 451.4 247.9C452 248.1 452.6 248.2 453.3 248.2C453.9 248.2 454.5 248.1 455 247.9C455.5 247.7 455.9 247.5 456.3 247.1C456.6 246.7 456.8 246.3 456.8 245.8C456.8 245.1 456.5 244.6 456 244.3C455.5 243.9 454.8 243.8 453.9 243.8H451.5V242.8H453.8C454.6 242.8 455.2 242.6 455.6 242.3C456 242 456.3 241.5 456.3 240.9C456.3 240.5 456.2 240.1 455.9 239.8C455.7 239.5 455.3 239.3 454.9 239.1C454.5 238.9 454 238.8 453.5 238.8C453 238.8 452.4 238.8 451.8 239C451.2 239.1 450.7 239.4 450.2 239.7L449.8 238.7C450.5 238.3 451.1 238 451.9 237.9C452.6 237.7 453.3 237.7 454 237.7C454.7 237.7 455.3 237.9 455.8 238.2C456.3 238.5 456.8 238.8 457.1 239.2C457.4 239.6 457.6 240.1 457.6 240.7C457.6 241.2 457.5 241.7 457.2 242.1C456.9 242.5 456.6 242.8 456.1 243C455.6 243.2 455 243.3 454.4 243.3L454.5 242.9C455.2 242.9 455.9 243 456.4 243.3C457 243.5 457.4 243.9 457.7 244.3C458 244.7 458.2 245.2 458.2 245.8C458.2 246.3 458.1 246.8 457.8 247.3C457.5 247.7 457.2 248.1 456.7 248.4C456.2 248.7 455.7 248.9 455.1 249C454.5 249.1 453.9 249.1 453.3 249.1C452.7 249 452 248.9 451.4 248.7C450.5 248.4 449.9 248.1 449.4 247.7Z" fill="white"/>
<path d="M161.4 164C162.781 164 163.9 162.881 163.9 161.5C163.9 160.119 162.781 159 161.4 159C160.019 159 158.9 160.119 158.9 161.5C158.9 162.881 160.019 164 161.4 164Z" fill="#056CF2"/>
<path d="M164.4 351C165.781 351 166.9 349.881 166.9 348.5C166.9 347.119 165.781 346 164.4 346C163.019 346 161.9 347.119 161.9 348.5C161.9 349.881 163.019 351 164.4 351Z" fill="#056CF2"/>
</g>
<defs>
<clipPath id="clip0_19_131">
<rect width="553.9" height="501" fill="white"/>
</clipPath>
</defs>
</svg>
